<svg width="21" height="27" viewBox="0 0 21 27" fill="none" xmlns="http://www.w3.org/2000/svg">
<path d="M18.9583 6.25V23.1667C18.9583 23.8076 18.7037 24.4223 18.2505 24.8755C17.7973 25.3287 17.1826 25.5833 16.5417 25.5833H4.45834C3.8174 25.5833 3.20271 25.3287 2.7495 24.8755C2.29628 24.4223 2.04167 23.8076 2.04167 23.1667V6.25M5.66667 6.25V3.83334C5.66667 3.1924 5.92128 2.57771 6.3745 2.1245C6.82771 1.67128 7.4424 1.41667 8.08334 1.41667H12.9167C13.5576 1.41667 14.1723 1.67128 14.6255 2.1245C15.0787 2.57771 15.3333 3.1924 15.3333 3.83334V6.25" stroke="#EA3140" stroke-width="2.41667" stroke-linecap="round" stroke-linejoin="round"/>
</svg>
